<?xml version="1.0" standalone="no"?><!DOCTYPE svg PUBLIC "-//W3C//DTD SVG 1.1//EN" "http://www.w3.org/Graphics/SVG/1.1/DTD/svg11.dtd"><svg t="1660741887166" class="icon" viewBox="0 0 1024 1024" version="1.1" xmlns="http://www.w3.org/2000/svg" p-id="4007" xmlns:xlink="http://www.w3.org/1999/xlink" width="32" height="32"><defs><style type="text/css">@font-face { font-family: feedback-iconfont; src: url("//at.alicdn.com/t/font_1031158_u69w8yhxdu.woff2?t=1630033759944") format("woff2"), url("//at.alicdn.com/t/font_1031158_u69w8yhxdu.woff?t=1630033759944") format("woff"), url("//at.alicdn.com/t/font_1031158_u69w8yhxdu.ttf?t=1630033759944") format("truetype"); }
</style></defs><path d="M799.9488 583.68c-14.336 0-28.672 1.6384-42.1888 5.3248l-117.1456-194.9696c-1.2288-2.048-2.8672-3.6864-4.096-5.7344 31.1296-31.5392 50.7904-74.9568 50.7904-123.2896 0-96.6656-78.6432-175.3088-175.3088-175.3088-96.6656 0-175.3088 78.6432-175.3088 175.3088 0 47.9232 19.2512 91.3408 50.7904 123.2896-1.6384 1.6384-2.8672 3.6864-4.096 5.7344L266.24 589.0048c-13.5168-3.2768-27.4432-5.3248-42.1888-5.3248-96.6656 0-175.3088 78.6432-175.3088 175.3088 0 96.6656 78.6432 175.3088 175.3088 175.3088 86.016 0 157.696-62.2592 172.4416-144.5888h230.6048c14.7456 81.92 86.4256 144.5888 172.4416 144.5888 96.6656 0 175.3088-78.6432 175.3088-175.3088 0-96.6656-78.6432-175.3088-174.8992-175.3088zM512 151.552c62.6688 0 113.8688 51.2 113.8688 113.8688S574.6688 378.88 512 378.88 398.1312 327.68 398.1312 265.0112 449.3312 151.552 512 151.552z m-76.1856 274.0224c0.4096-0.8192 0.8192-1.2288 1.2288-2.048 22.9376 10.6496 48.3328 16.7936 74.9568 16.7936s52.4288-6.144 74.9568-16.7936c0.4096 0.8192 0.8192 1.2288 1.2288 2.048l113.0496 188.8256c-38.0928 26.2144-65.536 66.7648-73.728 113.8688H396.4928c-8.192-47.104-35.6352-88.064-73.728-113.8688l113.0496-188.8256zM224.0512 872.448C161.3824 872.448 110.592 821.6576 110.592 758.9888s51.2-113.8688 113.8688-113.8688 113.8688 51.2 113.8688 113.8688S286.72 872.448 224.0512 872.448z m575.8976 0c-62.6688 0-113.8688-51.2-113.8688-113.8688s51.2-113.8688 113.8688-113.8688S913.408 696.32 913.408 758.9888 862.6176 872.448 799.9488 872.448z" fill="#1afa29" p-id="4008"></path></svg>