<?xml version="1.0" standalone="no"?><!DOCTYPE svg PUBLIC "-//W3C//DTD SVG 1.1//EN" "http://www.w3.org/Graphics/SVG/1.1/DTD/svg11.dtd"><svg t="1662426896809" class="icon" viewBox="0 0 1024 1024" version="1.1" xmlns="http://www.w3.org/2000/svg" p-id="19506" xmlns:xlink="http://www.w3.org/1999/xlink" width="32" height="32"><path d="M512 1024C228.266667 1024 0 795.733333 0 512S228.266667 0 512 0s512 228.266667 512 512S795.733333 1024 512 1024zM512 170.666667c-36.266667 0-64 27.733333-64 64s27.733333 64 64 64c36.266667 0 64-27.733333 64-64S548.266667 170.666667 512 170.666667zM576 448c0-36.266667-27.733333-64-64-64-36.266667 0-64 27.733333-64 64l0 341.333333c0 36.266667 27.733333 64 64 64 36.266667 0 64-27.733333 64-64L576 448z" p-id="19507" fill="#efd7a5"></path></svg>