<?xml version="1.0" standalone="no"?><!DOCTYPE svg PUBLIC "-//W3C//DTD SVG 1.1//EN" "http://www.w3.org/Graphics/SVG/1.1/DTD/svg11.dtd"><svg t="1662426931977" class="icon" viewBox="0 0 1026 1024" version="1.1" xmlns="http://www.w3.org/2000/svg" p-id="20524" xmlns:xlink="http://www.w3.org/1999/xlink" width="32.0625" height="32"><path d="M508.672 0C227.736 0 0 227.736 0 508.664s227.736 508.672 508.664 508.672c280.928 0 508.664-227.744 508.664-508.672S789.592 0 508.672 0zM731.296 253.448l-24.584 0 0 15.392c0 96.632-33.064 185.248-87.528 237.824 54.472 52.6 87.528 141.216 87.528 237.832l0 19.392 24.584 0 0 59.32L286.032 823.208l0-59.32 24.592 0 0-19.392c0-96.632 33.072-185.24 87.536-237.832-54.472-52.576-87.536-141.192-87.536-237.824l0-15.392-24.592 0 0-59.32 445.264 0L731.296 253.448z" p-id="20525" fill="#efd7a5"></path><path d="M439.656 491.184l20.408 15.48-20.408 15.464c-50.992 38.664-85.168 116.912-89.696 202.952l317.416 0c-4.52-86.048-38.72-164.296-89.696-202.952l-20.416-15.464 20.416-15.48c50.976-38.648 85.168-116.888 89.68-202.936L349.96 288.248C354.48 374.296 388.672 452.544 439.656 491.184zM626.448 319.104c-3.408 65.336-29.384 124.752-68.096 154.104 0 0-6.64 2.864-15.496 11.736-18.32 26.168-19.304 121.8-19.328 126.024 13.16 1.4 27.36 6.944 41.448 19.808 49.696 45.408 64.104 50.76 65.824 83.712L390.888 714.488c1.728-32.952 16.136-38.304 65.832-83.712 14.088-12.856 28.296-18.408 41.448-19.808-0.024-4.224-1.008-99.856-19.336-126.024-8.84-8.864-15.48-11.736-15.48-11.736-38.712-29.344-64.696-88.768-68.096-154.104L626.448 319.104z" p-id="20526" fill="#efd7a5"></path></svg>